<svg viewBox="0 0 24 24" fill="currentColor">
  <path d="M12 .5C5.65.5.5 5.66.5 12.03c0 5.1 3.3 9.41 7.88 10.94.57.11.78-.25.78-.56 0-.27-.01-1.18-.02-2.14-3.2.7-3.88-1.36-3.88-1.36-.52-1.34-1.28-1.69-1.28-1.69-1.04-.72.08-.71.08-.71 1.15.08 1.76 1.19 1.76 1.19 1.02 1.76 2.67 1.25 3.33.95.1-.74.4-1.25.72-1.54-2.56-.3-5.25-1.29-5.25-5.72 0-1.26.45-2.29 1.19-3.1-.12-.3-.52-1.51.11-3.15 0 0 .97-.31 3.18 1.19a10.95 10.95 0 0 1 5.8 0c2.2-1.5 3.17-1.19 3.17-1.19.64 1.64.24 2.85.12 3.15.74.81 1.18 1.84 1.18 3.1 0 4.44-2.69 5.41-5.26 5.71.41.36.78 1.08.78 2.18 0 1.57-.02 2.83-.02 3.22 0 .31.2.68.79.56A11.55 11.55 0 0 0 23.5 12C23.5 5.66 18.35.5 12 .5Z" />
</svg>
